# xmcd
#
# Track frame offsets: 
#        150
#        22112
#        37622
#        58160
#        76667
#        97247
#        122727
#        142612
#        165780
#        184217
#        203445
#        226622
#        246390
#        264690
#        278950
#        299537
#        320887
#        338270
#
# Disc length: 4710 seconds
#
# Revision: 27
# Processed by: cddbd v1.5.2PL0 Copyright (c) Steve Scherf et al.
# Submitted via: ExactAudioCopyFreeDBPlugin 1.0
#
DISCID=f4126412
DTITLE=Various Artist - ザ・モスト・リラクシング～フィール
DYEAR=2000
DGENRE=New Age
TTITLE0=アディエマス - 世紀を越えて
TTITLE1=姫神 - 神々の詩
TTITLE2=シークレット・ガーデン - 祈り
TTITLE3=エニグマ - リターン・トゥ・イノセンス
TTITLE4=ウォン・ウィン・ツァン - 運命と絆
TTITLE5=フェイ・ウォン - EYES ON ME
TTITLE6=アンドレ・ギャニオン - 溢れる愛のなかでも
TTITLE7=東儀秀樹 - ニュー・エイジア
TTITLE8=サラ・ブライトマン feat. アンドレア・ボチェッリ - タイム・トゥ・セイ・グッバイ
TTITLE9=坂本龍一 - シェルタリング・スカイ・テーマ
TTITLE10=オリガ - ポーリュシカ・ポーレ
TTITLE11=ザ・ニュー・ワールド・オーケストラ feat.マドルガダ - マイ・ハート・ウィル・ゴー・オン
TTITLE12=セイクリッド・スピリット - 聖なる大地の祈り
TTITLE13=マイケル・ナイマン(映画「ピアノ・レッスン」) - 楽しみを希う心
TTITLE14=エヴィア - ブシンドレ・リール
TTITLE15=エリック・セラ(映画「グラン・ブルー」) - 前奏曲
TTITLE16=マドレデウス - 終焉
TTITLE17=千住明 feat.ヴァイオリン・ソロ・千住真里子 - 世紀末の詩
EXTD=YEAR: 2000
EXTT0=
EXTT1=
EXTT2=
EXTT3=
EXTT4=
EXTT5=
EXTT6=
EXTT7=
EXTT8=
EXTT9=
EXTT10=
EXTT11=
EXTT12=
EXTT13=
EXTT14=
EXTT15=
EXTT16=
EXTT17=
PLAYORDER=
